<svg width="28" height="28" viewBox="0 0 28 28" fill="none" xmlns="http://www.w3.org/2000/svg">
<path d="M14.0019 8C16.0952 8.0002 17.8202 9.02314 19.1162 10.2656C20.4112 11.5072 21.3358 13.0201 21.8535 14.1504C22.0696 14.6223 22.0575 15.1859 21.7724 15.6543C20.7562 17.3232 18.1434 19.9988 14.0019 19.999C9.86017 19.999 7.2467 17.3233 6.23044 15.6543C5.94534 15.1859 5.93325 14.6224 6.14938 14.1504C6.66705 13.0201 7.5917 11.5072 8.88669 10.2656C10.1828 9.02305 11.9084 8 14.0019 8ZM14.0019 9.5C12.4254 9.5 11.0523 10.2677 9.92477 11.3486C8.79634 12.4305 7.97104 13.7745 7.51266 14.7754C7.49172 14.8214 7.50057 14.8567 7.51169 14.875C8.36055 16.2688 10.5578 18.499 14.0019 18.499C17.4458 18.4988 19.6424 16.2688 20.4912 14.875C20.5023 14.8567 20.5111 14.8213 20.4902 14.7754C20.0318 13.7745 19.2065 12.4305 18.0781 11.3486C16.9507 10.2678 15.5782 9.5002 14.0019 9.5ZM14.1084 10.2393C16.0219 10.2393 17.5732 11.8985 17.5732 13.9453C17.573 15.9919 16.0218 17.6513 14.1084 17.6514C12.1949 17.6513 10.6438 15.9919 10.6435 13.9453C10.6436 11.8985 12.1948 10.2393 14.1084 10.2393ZM14.1084 11.7393C13.1167 11.7393 12.1436 12.6303 12.1435 13.9453C12.1438 15.2601 13.1168 16.1513 14.1084 16.1514C15.0999 16.1513 16.073 15.2601 16.0732 13.9453C16.0732 12.6303 15.1 11.7393 14.1084 11.7393Z" fill="currentColor"/>
<path d="M8 19.3137L19.3137 8" stroke="currentColor" stroke-width="1.5" stroke-linecap="round"/>
</svg>
