<svg width="28" height="28" viewBox="0 0 28 28" fill="none" xmlns="http://www.w3.org/2000/svg">
<path d="M13.9951 8.05957C16.0884 8.05977 17.8134 9.08271 19.1093 10.3252C20.4043 11.5667 21.329 13.0796 21.8466 14.21C22.0627 14.6819 22.0507 15.2455 21.7656 15.7139C20.7494 17.3828 18.1365 20.0583 13.9951 20.0586C9.85333 20.0586 7.23987 17.3829 6.2236 15.7139C5.93851 15.2454 5.92642 14.6819 6.14255 14.21C6.66022 13.0796 7.58487 11.5667 8.87985 10.3252C10.176 9.08262 11.9016 8.05957 13.9951 8.05957ZM13.9951 9.55957C12.4186 9.55957 11.0455 10.3272 9.91794 11.4082C8.7895 12.4901 7.9642 13.834 7.50583 14.835C7.48488 14.8809 7.49373 14.9163 7.50485 14.9346C8.35371 16.3284 10.5509 18.5586 13.9951 18.5586C17.4389 18.5583 19.6356 16.3283 20.4843 14.9346C20.4954 14.9163 20.5043 14.8809 20.4834 14.835C20.025 13.834 19.1997 12.4901 18.0713 11.4082C16.9439 10.3273 15.5714 9.55977 13.9951 9.55957ZM14.1015 10.2988C16.0151 10.2989 17.5663 11.9581 17.5664 14.0049C17.5661 16.0515 16.015 17.7109 14.1015 17.7109C12.1881 17.7109 10.6369 16.0515 10.6367 14.0049C10.6367 11.9581 12.188 10.2989 14.1015 10.2988ZM14.1015 11.7988C13.1099 11.7989 12.1367 12.6899 12.1367 14.0049C12.1369 15.3197 13.11 16.2109 14.1015 16.2109C15.0931 16.2109 16.0661 15.3197 16.0664 14.0049C16.0663 12.6898 15.0932 11.7989 14.1015 11.7988Z" fill="currentColor"/>
</svg>
